<svg xmlns="http://www.w3.org/2000/svg" viewBox="0 0 200 200" fill="none">
  <defs>
    <linearGradient id="logoGrad" x1="0" y1="0" x2="1" y2="1">
      <stop offset="0%" stop-color="#2dd4bf"/>
      <stop offset="100%" stop-color="#059669"/>
    </linearGradient>
  </defs>
  <!-- Upper-left shape -->
  <path d="M40 30 C40 20, 48 12, 58 12 L105 12 C115 12, 120 20, 115 28 L90 68 C85 76, 90 84, 100 84 L120 84" stroke="url(#logoGrad)" stroke-width="0" fill="url(#logoGrad)" />
  <!-- Stylized B mark -->
  <path d="
    M 55 20
    L 110 20
    Q 130 20, 130 42
    Q 130 58, 112 62
    Q 135 68, 135 90
    Q 135 115, 110 115
    L 55 115
    L 55 88
    L 100 88
    Q 108 88, 108 80
    Q 108 72, 100 72
    L 55 72
    L 55 48
    L 95 48
    Q 103 48, 103 40
    Q 103 32, 95 32
    L 55 32
    Z
  " fill="url(#logoGrad)" />
  <!-- Text: BESTCHOICE -->
  <text x="100" y="160" text-anchor="middle" font-family="'Noto Sans Thai', Arial, sans-serif" font-size="28" font-weight="700" letter-spacing="2">
    <tspan fill="#4b5563">BEST</tspan><tspan fill="#059669">CHOICE</tspan>
  </text>
</svg>
