<svg xmlns="http://www.w3.org/2000/svg" viewBox="595 294 313 281" fill="none">
  <defs>
    <linearGradient id="bc" gradientUnits="userSpaceOnUse" x1="597.6" y1="434.1" x2="902.4" y2="434.1">
      <stop offset="0" stop-color="#39F0CF"/>
      <stop offset="0.5" stop-color="#25BC93"/>
      <stop offset="1" stop-color="#1DA579"/>
    </linearGradient>
  </defs>
  <path fill="url(#bc)" d="M 603.769531 297.347656 C 600.023438 298.191406 597.769531 301.1875 597.597656 305.820312 C 597.414062 310.808594 599.695312 314.0625 603.605469 315.121094 C 605.0625 315.515625 606.605469 315.484375 608.132812 315.453125 C 608.550781 315.445312 608.96875 315.4375 609.382812 315.4375 C 623.914062 315.445312 638.449219 315.445312 652.980469 315.445312 C 662.1875 315.445312 671.390625 315.445312 680.59375 315.445312 C 692.277344 315.449219 696.074219 321.558594 693.207031 335.660156 C 687.417969 364.132812 681.613281 392.601562 675.878906 421.089844 C 673.085938 434.941406 678.320312 443.273438 689.765625 443.289062 C 717.367188 443.324219 744.976562 443.292969 772.582031 443.335938 C 782.101562 443.351562 785.0625 447.972656 782.789062 459.183594 C 777.746094 484.074219 772.6875 508.957031 767.59375 533.832031 C 764.777344 547.605469 759.269531 552.824219 747.617188 552.828125 C 701.550781 552.84375 655.484375 552.839844 609.414062 552.847656 C 608.996094 552.847656 608.578125 552.84375 608.160156 552.835938 C 606.816406 552.820312 605.472656 552.800781 604.144531 552.976562 C 599.992188 553.523438 597.800781 556.847656 597.597656 561.664062 C 597.402344 566.289062 599.542969 569.574219 603.199219 570.730469 C 604.714844 571.210938 606.347656 571.191406 607.960938 571.171875 C 608.292969 571.164062 608.628906 571.160156 608.960938 571.160156 C 650.808594 571.183594 692.65625 571.175781 734.503906 571.179688 C 776.878906 571.183594 819.257812 571.214844 861.632812 571.164062 C 873.066406 571.152344 879.71875 564.628906 882.480469 551.023438 C 888.8125 519.808594 895.195312 488.605469 901.441406 457.363281 C 905.367188 437.703125 897.210938 424.992188 880.769531 424.957031 C 868.933594 424.933594 857.101562 424.9375 845.265625 424.941406 C 833.714844 424.945312 822.164062 424.949219 810.613281 424.925781 C 799.550781 424.90625 794.933594 417.503906 797.613281 404.195312 C 802.675781 379.085938 807.78125 353.988281 812.839844 328.878906 C 816.617188 310.132812 808.339844 297.125 792.601562 297.121094 C 731.234375 297.097656 669.867188 297.109375 608.503906 297.117188 C 607.859375 297.117188 607.214844 297.097656 606.566406 297.097656 C 605.625 297.097656 604.683594 297.140625 603.769531 297.347656"/>
</svg>
